<?xml version="1.0" standalone="no"?>
<!DOCTYPE svg PUBLIC "-//W3C//DTD SVG 20010904//EN"
 "http://www.w3.org/TR/2001/REC-SVG-20010904/DTD/svg10.dtd">
<svg version="1.0" xmlns="http://www.w3.org/2000/svg"
 width="512.000000pt" height="512.000000pt" viewBox="0 0 512.000000 512.000000"
 preserveAspectRatio="xMidYMid meet">

<g transform="translate(0.000000,512.000000) scale(0.100000,-0.100000)"
fill="#000000" stroke="none">
<path d="M2950 3745 l0 -407 -1247 7 c-687 4 -1296 4 -1355 0 l-108 -7 0 -292
c0 -161 3 -509 7 -773 l6 -480 406 -7 c223 -3 830 -9 1349 -12 l942 -7 0 -401
1 -401 657 660 c622 625 912 925 912 944 0 17 -573 601 -1064 1084 l-506 499
0 -407z m277 -4 c87 -82 391 -383 676 -668 l518 -519 -593 -589 c-601 -598
-763 -753 -775 -742 -15 16 -22 122 -22 376 l-1 274 -602 -6 c-332 -4 -934 -8
-1338 -9 l-735 -3 -3 702 -2 703 1337 2 1338 3 6 295 c5 278 10 330 29 330 5
0 80 -67 167 -149z"/>
<path d="M4550 2495 c-17 -20 19 -80 103 -170 110 -121 149 -185 111 -185 -22
0 -64 31 -166 121 -47 43 -100 85 -117 93 -105 55 -83 -35 43 -174 180 -198
153 -254 -38 -80 -87 80 -160 130 -188 130 -54 0 -19 -71 100 -204 83 -91 117
-145 103 -159 -14 -14 -61 17 -171 113 -114 100 -157 127 -172 112 -15 -15 12
-58 112 -172 96 -110 127 -157 113 -171 -14 -14 -70 21 -159 102 -97 89 -166
134 -190 125 -35 -14 10 -94 123 -219 55 -61 103 -132 103 -152 0 -3 -9 -5
-19 -5 -25 0 -97 55 -191 145 -88 84 -124 109 -145 101 -41 -15 5 -93 112
-191 74 -68 125 -147 105 -167 -15 -15 -37 0 -142 96 -142 129 -234 169 -215
93 6 -24 26 -50 158 -204 54 -64 77 -106 64 -120 -11 -10 -92 45 -171 117 -89
82 -131 110 -163 110 -51 0 -18 -69 94 -197 89 -102 119 -148 103 -158 -16
-10 -85 32 -147 88 -118 109 -193 153 -193 114 0 -19 53 -92 110 -152 99 -104
146 -185 107 -185 -20 0 -83 48 -173 129 -77 71 -155 118 -174 106 -30 -19 10
-90 120 -210 158 -174 119 -213 -55 -55 -138 124 -187 153 -201 116 -10 -27
27 -85 120 -185 92 -99 125 -145 113 -157 -10 -10 -81 40 -153 107 -109 102
-201 146 -217 105 -8 -21 21 -61 132 -180 92 -99 124 -147 108 -163 -16 -15
-63 15 -163 103 -107 95 -167 134 -181 120 -16 -16 40 -89 176 -228 l144 -147
811 805 c446 443 812 809 813 812 2 4 -70 82 -160 175 -142 146 -166 167 -193
167 -17 0 -37 -7 -44 -15z"/>
<path d="M345 1720 c-11 -18 22 -59 163 -202 l136 -138 991 0 c994 0 1235 4
1235 23 0 29 -251 244 -353 303 -48 27 -97 32 -97 10 0 -8 24 -42 53 -76 154
-180 155 -180 114 -180 -29 0 -81 37 -203 144 -51 45 -114 92 -139 105 -46 23
-95 25 -102 5 -2 -7 27 -45 64 -85 118 -127 144 -169 105 -169 -29 0 -100 50
-192 135 -92 85 -163 135 -192 135 -38 0 -18 -37 74 -139 55 -61 78 -104 64
-118 -13 -13 -76 28 -172 112 -54 48 -121 100 -149 116 -51 29 -99 37 -110 19
-8 -12 5 -29 108 -145 80 -90 92 -115 56 -115 -29 0 -101 52 -190 136 -91 86
-162 134 -201 134 -23 0 -28 -4 -28 -24 0 -26 21 -55 112 -154 55 -60 72 -92
47 -92 -14 0 -71 46 -176 142 -44 40 -103 86 -131 101 -52 28 -102 33 -109 10
-2 -6 34 -53 80 -105 75 -83 107 -125 107 -142 0 -3 -9 -6 -20 -6 -30 0 -85
38 -175 120 -105 96 -188 150 -232 150 -51 0 -43 -28 35 -111 113 -123 134
-159 94 -159 -28 0 -97 50 -201 145 -97 88 -162 131 -187 121 -24 -9 -17 -23
57 -107 38 -45 77 -95 85 -111 13 -25 13 -29 -1 -34 -20 -8 -72 27 -169 112
-125 111 -230 167 -251 134z"/>
<path d="M2681 1717 c-10 -13 -10 -21 2 -44 21 -39 151 -163 172 -163 15 0 17
7 12 54 -7 66 -27 108 -67 136 -40 29 -101 37 -119 17z"/>
</g>
</svg>
