<?xml version="1.0" standalone="no"?>
<!DOCTYPE svg PUBLIC "-//W3C//DTD SVG 20010904//EN"
 "http://www.w3.org/TR/2001/REC-SVG-20010904/DTD/svg10.dtd">
<svg version="1.0" xmlns="http://www.w3.org/2000/svg"
 width="512.000000pt" height="512.000000pt" viewBox="0 0 512.000000 512.000000"
 preserveAspectRatio="xMidYMid meet">

<g transform="translate(0.000000,512.000000) scale(0.100000,-0.100000)"
fill="#000000" stroke="none">
<path d="M917 3412 c-433 -433 -787 -792 -787 -797 0 -11 1591 -1605 1603
-1605 4 0 7 179 7 399 l0 398 943 7 c518 3 1123 9 1343 12 l402 7 7 366 c9
430 1 922 -16 1074 l-13 107 -1332 0 -1331 0 -7 148 c-3 81 -9 265 -12 410 -4
144 -10 262 -13 262 -3 0 -360 -354 -794 -788z m734 407 c4 -74 8 -221 9 -326
l0 -193 1336 0 1336 0 -6 -337 c-3 -186 -9 -498 -12 -694 l-6 -356 -271 -6
c-149 -4 -426 -7 -617 -7 -191 0 -665 -3 -1053 -7 l-707 -6 0 -181 c0 -203
-15 -425 -29 -439 -6 -6 -53 31 -122 94 -169 156 -887 875 -1019 1022 -108
120 -190 227 -190 248 0 19 155 183 524 556 463 469 796 787 809 774 5 -5 13
-69 18 -142z"/>
<path d="M1778 4113 c-7 -28 25 -81 101 -173 95 -113 161 -200 161 -211 0 -21
-25 -4 -116 76 -91 80 -134 103 -134 72 0 -24 61 -110 144 -203 70 -79 90
-108 126 -183 13 -29 38 -37 57 -18 40 39 33 268 -10 354 -46 89 -264 303
-310 303 -9 0 -17 -8 -19 -17z"/>
<path d="M1797 3653 c-14 -13 -6 -68 14 -111 16 -33 32 -49 63 -63 45 -20 111
-25 121 -9 9 14 -67 103 -128 151 -50 40 -59 44 -70 32z"/>
<path d="M4490 3264 c0 -25 33 -76 126 -195 124 -159 149 -209 92 -182 -13 6
-61 45 -107 87 -46 42 -90 76 -97 76 -9 0 -14 -12 -14 -38 0 -46 49 -124 150
-237 157 -175 136 -224 -34 -80 -50 41 -96 75 -103 75 -40 0 16 -97 132 -230
66 -77 115 -154 103 -165 -13 -13 -45 6 -123 75 -109 96 -149 106 -127 32 13
-42 67 -120 175 -253 64 -79 87 -122 73 -136 -8 -9 -71 36 -149 106 -78 70
-97 76 -97 29 0 -46 44 -117 143 -231 90 -105 122 -156 107 -171 -14 -14 -52
9 -129 77 -70 63 -106 85 -118 73 -14 -13 47 -110 128 -206 80 -94 129 -173
116 -186 -11 -11 -47 12 -123 78 -38 33 -91 71 -117 84 -49 26 -97 29 -104 7
-2 -6 29 -48 69 -93 77 -86 118 -139 118 -152 0 -4 -11 -8 -23 -8 -30 0 -92
44 -183 130 -97 92 -159 133 -203 134 -52 1 -50 -20 9 -89 145 -174 146 -175
112 -175 -23 0 -109 59 -209 146 -43 36 -100 79 -128 95 -91 52 -100 32 -25
-56 85 -102 110 -137 110 -157 0 -40 -55 -8 -196 116 -91 78 -167 126 -205
126 -53 0 -45 -22 40 -114 105 -113 130 -156 93 -156 -29 0 -100 50 -192 135
-92 85 -163 135 -192 135 -38 0 -18 -37 74 -139 55 -61 78 -104 64 -118 -13
-13 -73 27 -171 112 -55 48 -122 100 -150 116 -51 30 -99 37 -111 18 -6 -11 0
-19 119 -155 70 -81 81 -104 46 -104 -29 0 -93 46 -194 140 -136 126 -216 162
-223 99 -2 -21 15 -45 89 -124 125 -132 88 -142 -59 -17 -133 115 -220 172
-262 172 -34 0 -23 -32 31 -95 72 -84 109 -136 109 -152 0 -39 -72 5 -225 138
-77 67 -150 109 -190 109 -42 0 -30 -33 43 -111 113 -123 134 -159 94 -159
-28 0 -97 50 -199 144 -132 122 -213 157 -221 97 -3 -19 15 -41 87 -111 85
-81 110 -120 77 -120 -16 0 -122 77 -151 110 -11 12 -47 44 -80 70 -98 77
-156 99 -169 64 -8 -22 9 -47 99 -143 81 -87 135 -164 135 -193 0 -39 -37 -18
-147 83 -59 54 -98 78 -110 65 -12 -12 10 -78 46 -132 21 -33 65 -88 98 -124
72 -79 100 -118 108 -153 13 -50 -29 -32 -120 53 -66 61 -131 104 -145 95 -30
-18 18 -105 130 -235 85 -100 143 -180 135 -188 -8 -8 -54 27 -132 99 -41 38
-78 69 -83 69 -5 0 -12 -11 -16 -25 -14 -58 93 -208 252 -352 l79 -72 3 398 2
398 767 6 c421 4 985 7 1253 7 268 0 528 3 578 6 l92 7 0 777 0 777 -107 104
c-112 108 -182 168 -220 188 -20 10 -23 9 -23 -5z"/>
</g>
</svg>
