<?xml version="1.0" encoding="utf-8"?>
<!-- Generator: Adobe Illustrator 23.0.5, SVG Export Plug-In . SVG Version: 6.00 Build 0)  -->
<svg version="1.1" id="Capa_1" xmlns="http://www.w3.org/2000/svg" xmlns:xlink="http://www.w3.org/1999/xlink" x="0px" y="0px"
	 viewBox="0 0 512 512" style="enable-background:new 0 0 512 512;" xml:space="preserve">
<g transform="translate(0.000000,512.000000) scale(0.100000,-0.100000)">
	<path d="M855.5,3502.9C384.8,3032.2,0,2642,0,2636.5c0-12,1729.5-1744.7,1742.5-1744.7c4.3,0,7.6,194.6,7.6,433.7v432.6l1025.1,7.6
		c563.1,3.3,1220.8,9.8,1459.9,13l437,7.6l7.6,397.9c9.8,467.4,1.1,1002.3-17.4,1167.5l-14.1,116.3H3200.3H1753.4l-7.6,160.9
		c-3.3,88.1-9.8,288.1-13,445.7c-4.3,156.5-10.9,284.8-14.1,284.8C1715.4,4359.5,1327.3,3974.7,855.5,3502.9z M1653.4,3945.3
		c4.3-80.4,8.7-240.2,9.8-354.4v-209.8h1452.3h1452.3l-6.5-366.3c-3.3-202.2-9.8-541.4-13-754.4l-6.5-387l-294.6-6.5
		c-162-4.3-463.1-7.6-670.7-7.6c-207.6,0-722.9-3.3-1144.7-7.6l-768.5-6.5v-196.8c0-220.7-16.3-462-31.5-477.2
		c-6.5-6.5-57.6,33.7-132.6,102.2c-183.7,169.6-964.2,951.2-1107.7,1111c-117.4,130.4-206.5,246.8-206.5,269.6
		c0,20.7,168.5,198.9,569.6,604.4c503.3,509.8,865.3,855.5,879.4,841.4C1639.3,4094.3,1648,4024.7,1653.4,3945.3z"/>
	<path d="M1791.5,4264.9c-7.6-30.4,27.2-88.1,109.8-188.1c103.3-122.8,175-217.4,175-229.4c0-22.8-27.2-4.3-126.1,82.6
		s-145.7,112-145.7,78.3c0-26.1,66.3-119.6,156.5-220.7c76.1-85.9,97.8-117.4,137-198.9c14.1-31.5,41.3-40.2,62-19.6
		c43.5,42.4,35.9,291.3-10.9,384.8c-50,96.7-287,329.4-337,329.4C1802.3,4283.4,1793.6,4274.7,1791.5,4264.9z"/>
	<path d="M1812.1,3764.9c-15.2-14.1-6.5-73.9,15.2-120.7c17.4-35.9,34.8-53.3,68.5-68.5c48.9-21.7,120.7-27.2,131.5-9.8
		c9.8,15.2-72.8,112-139.1,164.1C1833.9,3773.6,1824.1,3777.9,1812.1,3764.9z"/>
	<path d="M4739.5,3342c0-27.2,35.9-82.6,137-212c134.8-172.8,162-227.2,100-197.8c-14.1,6.5-66.3,48.9-116.3,94.6
		c-50,45.7-97.8,82.6-105.4,82.6c-9.8,0-15.2-13-15.2-41.3c0-50,53.3-134.8,163.1-257.6c170.7-190.2,147.8-243.5-37-87
		c-54.4,44.6-104.4,81.5-112,81.5c-43.5,0,17.4-105.4,143.5-250c71.7-83.7,125-167.4,112-179.4c-14.1-14.1-48.9,6.5-133.7,81.5
		c-118.5,104.4-162,115.2-138.1,34.8c14.1-45.7,72.8-130.4,190.2-275c69.6-85.9,94.6-132.6,79.4-147.8c-8.7-9.8-77.2,39.1-162,115.2
		c-84.8,76.1-105.4,82.6-105.4,31.5c0-50,47.8-127.2,155.4-251.1c97.8-114.1,132.6-169.6,116.3-185.9
		c-15.2-15.2-56.5,9.8-140.2,83.7c-76.1,68.5-115.2,92.4-128.3,79.4c-15.2-14.1,51.1-119.6,139.1-223.9
		c87-102.2,140.2-188.1,126.1-202.2c-12-12-51.1,13-133.7,84.8c-41.3,35.9-98.9,77.2-127.2,91.3c-53.3,28.3-105.4,31.5-113.1,7.6
		c-2.2-6.5,31.5-52.2,75-101.1c83.7-93.5,128.3-151.1,128.3-165.2c0-4.3-12-8.7-25-8.7c-32.6,0-100,47.8-198.9,141.3
		c-105.4,100-172.8,144.6-220.7,145.7c-56.5,1.1-54.4-21.7,9.8-96.7c157.6-189.1,158.7-190.2,121.7-190.2
		c-25,0-118.5,64.1-227.2,158.7c-46.7,39.1-108.7,85.9-139.1,103.3c-98.9,56.5-108.7,34.8-27.2-60.9
		c92.4-110.9,119.6-148.9,119.6-170.7c0-43.5-59.8-8.7-213.1,126.1c-98.9,84.8-181.5,137-222.8,137c-57.6,0-48.9-23.9,43.5-123.9
		c114.1-122.8,141.3-169.6,101.1-169.6c-31.5,0-108.7,54.4-208.7,146.8c-100,92.4-177.2,146.8-208.7,146.8
		c-41.3,0-19.6-40.2,80.4-151.1c59.8-66.3,84.8-113.1,69.6-128.3c-14.1-14.1-79.4,29.4-185.9,121.7
		c-59.8,52.2-132.6,108.7-163.1,126.1c-55.4,32.6-107.6,40.2-120.7,19.6c-6.5-12,0-20.7,129.4-168.5c76.1-88.1,88.1-113.1,50-113.1
		c-31.5,0-101.1,50-210.9,152.2c-147.8,137-234.8,176.1-242.4,107.6c-2.2-22.8,16.3-48.9,96.7-134.8
		c135.9-143.5,95.7-154.4-64.1-18.5c-144.6,125-239.2,187-284.8,187c-37,0-25-34.8,33.7-103.3c78.3-91.3,118.5-147.8,118.5-165.2
		c0-42.4-78.3,5.4-244.6,150c-83.7,72.8-163.1,118.5-206.5,118.5c-45.7,0-32.6-35.9,46.7-120.7c122.8-133.7,145.7-172.8,102.2-172.8
		c-30.4,0-105.4,54.4-216.3,156.5c-143.5,132.6-231.5,170.7-240.2,105.4c-3.3-20.7,16.3-44.6,94.6-120.7
		c92.4-88.1,119.6-130.4,83.7-130.4c-17.4,0-132.6,83.7-164.1,119.6c-12,13-51.1,47.8-87,76.1c-106.5,83.7-169.6,107.6-183.7,69.6
		c-8.7-23.9,9.8-51.1,107.6-155.4c88.1-94.6,146.8-178.3,146.8-209.8c0-42.4-40.2-19.6-159.8,90.2c-64.1,58.7-106.5,84.8-119.6,70.7
		c-13-13,10.9-84.8,50-143.5c22.8-35.9,70.7-95.7,106.5-134.8c78.3-85.9,108.7-128.3,117.4-166.3c14.1-54.4-31.5-34.8-130.4,57.6
		c-71.7,66.3-142.4,113.1-157.6,103.3c-32.6-19.6,19.6-114.1,141.3-255.5c92.4-108.7,155.4-195.7,146.8-204.4
		c-8.7-8.7-58.7,29.4-143.5,107.6c-44.6,41.3-84.8,75-90.2,75c-5.4,0-13-12-17.4-27.2c-15.2-63,101.1-226.1,273.9-382.6l85.9-78.3
		l3.3,432.6l2.2,432.6l833.8,6.5c457.6,4.3,1070.7,7.6,1362.1,7.6s574,3.3,628.3,6.5l100,7.6v844.6V3030l-116.3,113.1
		c-121.7,117.4-197.8,182.6-239.2,204.4C4742.8,3358.3,4739.5,3357.2,4739.5,3342z"/>
</g>
</svg>
