<?xml version="1.0" encoding="utf-8"?>
<!-- Generator: Adobe Illustrator 23.0.5, SVG Export Plug-In . SVG Version: 6.00 Build 0)  -->
<svg version="1.1" id="Capa_1" xmlns="http://www.w3.org/2000/svg" xmlns:xlink="http://www.w3.org/1999/xlink" x="0px" y="0px"
	 viewBox="0 0 512 512" style="enable-background:new 0 0 512 512;" xml:space="preserve">
<g transform="translate(0.000000,512.000000) scale(0.100000,-0.100000)">
	<path d="M2959,4012.6v-440.4l-1349.4,7.6c-743.4,4.3-1402.4,4.3-1466.3,0l-116.9-7.6v-316c0-174.2,3.2-550.8,7.6-836.5l6.5-519.4
		l439.3-7.6c241.3-3.2,898.1-9.7,1459.8-13l1019.3-7.6v-433.9l1.1-433.9l710.9,714.2c673.1,676.3,986.9,1000.9,986.9,1021.5
		c0,18.4-620,650.3-1151.4,1173l-547.5,540V4012.6z M3258.7,4008.3c94.1-88.7,423.1-414.4,731.5-722.8l560.5-561.6l-641.7-637.4
		c-650.3-647.1-825.6-814.8-838.6-802.9c-16.2,17.3-23.8,132-23.8,406.9l-1.1,296.5l-651.4-6.5c-359.3-4.3-1010.7-8.7-1447.9-9.7
		l-795.3-3.2l-3.2,759.6l-2.2,760.7l1446.8,2.2l1447.9,3.2l6.5,319.2c5.4,300.8,10.8,357.1,31.4,357.1
		C3083.4,4169.5,3164.6,4097,3258.7,4008.3z"/>
	<path d="M4690.4,2660c-18.4-21.6,20.6-86.6,111.5-184c119-130.9,161.2-200.2,120.1-200.2c-23.8,0-69.3,33.5-179.6,130.9
		c-50.9,46.5-108.2,92-126.6,100.6c-113.6,59.5-89.8-37.9,46.5-188.3c194.8-214.3,165.6-274.9-41.1-86.6
		c-94.1,86.6-173.1,140.7-203.4,140.7c-58.4,0-20.6-76.8,108.2-220.7c89.8-98.5,126.6-156.9,111.5-172.1
		c-15.1-15.1-66,18.4-185,122.3c-123.4,108.2-169.9,137.4-186.1,121.2s13-62.8,121.2-186.1c103.9-119,137.4-169.9,122.3-185
		s-75.7,22.7-172.1,110.4c-105,96.3-179.6,145-205.6,135.3c-37.9-15.1,10.8-101.7,133.1-237c59.5-66,111.5-142.8,111.5-164.5
		c0-3.2-9.7-5.4-20.6-5.4c-27.1,0-105,59.5-206.7,156.9c-95.2,90.9-134.2,117.9-156.9,109.3c-44.4-16.2,5.4-100.6,121.2-206.7
		c80.1-73.6,135.3-159.1,113.6-180.7c-16.2-16.2-40,0-153.7,103.9c-153.7,139.6-253.2,182.9-232.7,100.6c6.5-26,28.1-54.1,171-220.7
		c58.4-69.3,83.3-114.7,69.3-129.9c-11.9-10.8-99.6,48.7-185,126.6c-96.3,88.7-141.8,119-176.4,119c-55.2,0-19.5-74.7,101.7-213.2
		c96.3-110.4,128.8-160.2,111.5-171s-92,34.6-159.1,95.2c-127.7,117.9-208.8,165.6-208.8,123.4c0-20.6,57.4-99.6,119-164.5
		c107.1-112.5,158-200.2,115.8-200.2c-21.6,0-89.8,51.9-187.2,139.6c-83.3,76.8-167.7,127.7-188.3,114.7
		c-32.5-20.6,10.8-97.4,129.9-227.2c171-188.3,128.8-230.5-59.5-59.5c-149.3,134.2-202.4,165.6-217.5,125.5
		c-10.8-29.2,29.2-92,129.9-200.2c99.6-107.1,135.3-156.9,122.3-169.9c-10.8-10.8-87.7,43.3-165.6,115.8
		c-117.9,110.4-217.5,158-234.8,113.6c-8.7-22.7,22.7-66,142.8-194.8c99.6-107.1,134.2-159.1,116.9-176.4
		c-17.3-16.2-68.2,16.2-176.4,111.5c-115.8,102.8-180.7,145-195.9,129.9c-17.3-17.3,43.3-96.3,190.5-246.7l155.8-159.1l877.6,871.1
		c482.6,479.4,878.7,875.4,879.8,878.7c2.2,4.3-75.7,88.7-173.1,189.4c-153.7,158-179.6,180.7-208.8,180.7
		C4719.6,2676.2,4697.9,2668.7,4690.4,2660z"/>
	<path d="M140.1,1821.4c-11.9-19.5,23.8-63.8,176.4-218.6l147.2-149.3H1536c1075.6,0,1336.4,4.3,1336.4,24.9
		c0,31.4-271.6,264-382,327.9c-51.9,29.2-105,34.6-105,10.8c0-8.7,26-45.4,57.4-82.2c166.6-194.8,167.7-194.8,123.4-194.8
		c-31.4,0-87.7,40-219.7,155.8c-55.2,48.7-123.4,99.6-150.4,113.6c-49.8,24.9-102.8,27.1-110.4,5.4c-2.2-7.6,29.2-48.7,69.3-92
		c127.7-137.4,155.8-182.9,113.6-182.9c-31.4,0-108.2,54.1-207.8,146.1c-99.6,92-176.4,146.1-207.8,146.1
		c-41.1,0-19.5-40,80.1-150.4c59.5-66,84.4-112.5,69.3-127.7c-14.1-14.1-82.2,30.3-186.1,121.2c-58.4,51.9-130.9,108.2-161.2,125.5
		c-55.2,31.4-107.1,40-119,20.6c-8.7-13,5.4-31.4,116.9-156.9c86.6-97.4,99.6-124.4,60.6-124.4c-31.4,0-109.3,56.3-205.6,147.2
		c-98.5,93.1-175.3,145-217.5,145c-24.9,0-30.3-4.3-30.3-26c0-28.1,22.7-59.5,121.2-166.6c59.5-64.9,77.9-99.6,50.9-99.6
		c-15.1,0-76.8,49.8-190.5,153.7c-47.6,43.3-111.5,93.1-141.8,109.3c-56.3,30.3-110.4,35.7-117.9,10.8
		c-2.2-6.5,36.8-57.4,86.6-113.6c81.2-89.8,115.8-135.3,115.8-153.7c0-3.2-9.7-6.5-21.6-6.5c-32.5,0-92,41.1-189.4,129.9
		c-113.6,103.9-203.4,162.3-251,162.3c-55.2,0-46.5-30.3,37.9-120.1C882.4,1579,905.2,1540,861.9,1540c-30.3,0-105,54.1-217.5,156.9
		c-105,95.2-175.3,141.8-202.4,130.9c-26-9.7-18.4-24.9,61.7-115.8c41.1-48.7,83.3-102.8,92-120.1c14.1-27.1,14.1-31.4-1.1-36.8
		c-21.6-8.7-77.9,29.2-182.9,121.2C276.4,1796.5,162.8,1857.1,140.1,1821.4z"/>
	<path d="M2667.9,1818.1c-10.8-14.1-10.8-22.7,2.2-47.6c22.7-42.2,163.4-176.4,186.1-176.4c16.2,0,18.4,7.6,13,58.4
		c-7.6,71.4-29.2,116.9-72.5,147.2C2753.4,1831.1,2687.4,1839.8,2667.9,1818.1z"/>
</g>
</svg>
