<?xml version="1.0" encoding="utf-8"?>
<!-- Generator: Adobe Illustrator 23.0.5, SVG Export Plug-In . SVG Version: 6.00 Build 0)  -->
<svg version="1.1" id="Capa_1" xmlns="http://www.w3.org/2000/svg" xmlns:xlink="http://www.w3.org/1999/xlink" x="0px" y="0px"
	 viewBox="0 0 1024 1024" style="enable-background:new 0 0 1024 1024;" xml:space="preserve">
<g transform="translate(0.000000,1024.000000) scale(0.100000,-0.100000)">
	<path d="M806.6,2423.9l495.6-353.3c90.8-66,186.8-125.1,286.5-176.5c336.5-173.7,685.2-353.6,821.8-425.9
		c157.1-80,459.9-237.1,671.2-345.6c211.4-108.5,528.4-277.1,699.8-371.3C4327,451.3,5198.2,0,5229.6,0
		c37.1,0,1382.5,688.4,1536.7,785.5c57.1,37.1,299.9,165.7,542.7,291.3c539.8,275.3,1619.5,809.2,2058.8,1150.2
		c127.7,99.1,173.7,271.1,114.8,421.6c-0.9,2.3-2,4.3-3.4,6l-159.7,200.2c-0.3,0.3-0.6,0.9-1.1,1.1l-52.8,56.8
		c-0.9,0.9-1.7,1.7-2.9,2.6c-105.7,81.7-142.5,73.7-140,181.9l-8.3,2852.3l-5.7,2848.3c0,34.6,19.4,66.3,50.3,82l152.5,77.4
		l151.1,75.4c33.1,16.6,53.1,51.4,50.6,88.3l-10.3,150.5c-3.7,50.8-8,99.1-12.3,138c-5.4,47.4-55.1,75.7-98.8,56
		c-333.9-150.5-1577.8-786.6-1848.3-948c-82.8-51.4-268.5-148.5-414.2-217.1c-142.8-71.4-437-222.8-648.4-339.9
		c-211.4-114.3-525.6-282.8-694.1-374.2l-164.8-88.5c-63.1-33.7-138.8,14.3-135.1,85.7l0,0l6,114.8c1.7,30,17.7,57.4,43.1,73.1
		l230.5,143.1c148.5,91.4,379.9,228.5,508.4,302.8c131.4,77.1,351.3,208.5,485.6,297.1c137.1,88.5,299.9,188.5,362.8,219.9
		c62.8,34.3,268.5,160,457,277.1c186.8,116,379,231.9,427,259.1c1.1,0.6,1.7,0.9,2.9,1.4c80.8,39.4,521,297.9,949.7,553.6
		c182.8,111.4,191.4,174.2,40,322.8c-30.6,29.1-59.4,56-81.4,74.8c-22,19.1-53.7,22.3-79.4,8.3c-35.7-19.4-91.1-51.1-150.5-86.3
		c-100-57.1-394.2-237.1-657-397c-265.6-157.1-631.2-379.9-816.9-491.3c-185.7-111.4-371.3-228.5-414.2-257.1
		c-42.8-28.6-302.8-185.7-577-345.6c-274.2-160-597-348.5-714.1-419.9c-133.7-80.3-219.7-115.4-265.4-112.5
		c-6.9,1.7-13.4,3.4-20.3,4.9c-95.4,36.6-477.9,255.4-742.6,427.6c-102.8,65.7-339.9,211.4-528.4,319.9
		c-188.5,111.4-405.6,239.9-485.6,285.6c-77.1,48.6-257.1,154.2-399.9,237.1c-140,85.7-385.6,231.4-542.7,328.5
		c-711.2,437-779.8,471.3-922.6,471.3c-74.3,0-151.4-14.3-171.4-34.3c-62.8-62.8-37.1-168.5,60-262.8
		c94.3-88.5,557-374.2,985.4-611.3c120-65.7,257.1-148.5,299.9-179.9c88.5-65.7,559.8-339.9,579.8-339.9
		c8.6,0,94.3-54.3,191.4-117.1c194.2-128.5,214.2-142.8,634.1-382.7c157.1-88.5,325.6-191.4,371.3-225.6
		c48.6-37.1,151.4-100,228.5-145.7c237.1-134.2,271.4-177.1,271.4-334.2c0-74.3-8.6-137.1-20-137.1c-14.3,0-60,20-108.5,45.7
		c-91.4,48.6-719.8,365.6-999.7,505.6c-94.3,45.7-202.8,105.7-242.8,134.2c-40,25.7-231.4,131.4-428.4,228.5
		c-197.1,100-405.6,211.4-462.7,248.5c-57.1,34.3-251.4,140-428.4,231.4c-177.1,94.3-542.7,285.6-814.1,431.3
		C1276.5,9393.9,1042.2,9511,1028,9511c-25.7,0-14.3-388.5,11.4-477c5.7-17.1,88.5-77.1,182.8-128.5l126.2-68.3
		c29.7-16,48-47.1,48-80.8V5977.4V3258.2c0-1.1,0.3-2.6,0.3-3.7C1473.5,2894.9,525.5,2731.2,806.6,2423.9 M8622.9,5821.2
		l-2.9-2721.8c0-35.1-20.3-67.1-52-82.5l-196.8-94.8c-137.1-68.6-511.3-265.6-834-439.9c-651.2-351.3-1979.4-1025.4-2028-1025.4
		c-20,0-28.6,868.3-28.6,2764.9v2705.8c0,34.6,19.4,66,50,81.7l587,300.2c348.5,179.9,679.8,354.2,734.1,388.5
		c54.3,34.3,202.8,108.5,328.5,168.5c125.7,60,377,188.5,557,288.5c286.8,156.2,611.8,325,770.1,401.3c46,22.3,99.7-10.3,100.8-61.1
		C8616.9,8166.5,8622.9,7088.5,8622.9,5821.2z M2147.6,8466.1c111.4-57.1,302.8-160,419.9-225.6c117.1-65.7,408.5-219.9,642.7-337
		c237.1-120,505.6-262.8,599.8-322.8c94.3-57.1,228.5-125.7,299.9-154.2c148.5-62.8,348.5-162.8,665.5-339.9l172.8-96.5
		c29.1-16.3,47.1-46.8,47.1-80.3V4195.9c0-1522.4-5.7-2767.8-14.3-2767.8c-25.7,0-1311.1,662.7-1473.9,759.8
		c-88.5,51.4-274.2,151.4-414.2,219.9c-140,71.4-379.9,199.9-531.3,288.5c-154.2,88.5-285.6,160-291.3,160
		c-8.6,0-91.4,45.7-185.7,102.8l-129.1,76.3c-28,16.6-45.1,46.6-45.1,79.1v2701.2c0,1513.9,5.7,2753.5,14.3,2753.5
		S2033.4,8523.3,2147.6,8466.1z M9059.9,2653.5c28.6-17.1,48.6-60,48.6-111.4c0-77.1-20-94.3-205.7-182.8
		c-254.2-122.8-968.3-497-1331-699.8c-145.7-80-274.2-145.7-282.8-145.7c-11.4,0-191.4-94.3-405.6-211.4
		c-491.3-265.6-1345.3-702.7-1379.6-702.7c-11.4,0-22.9,88.5-22.9,199.9v143.7c0,34.6,19.4,66,50,81.7l229.9,117.4
		c151.4,77.1,322.8,165.7,377,197.1c54.3,31.4,182.8,97.1,285.6,145.7c102.8,51.4,308.5,157.1,457,237.1
		c148.5,77.1,368.5,194.2,485.6,257.1c117.1,60,317.1,165.7,442.7,234.2s402.7,211.4,614.1,319.9
		c354.2,182.8,394.2,197.1,485.6,171.4C8962.8,2690.7,9031.4,2667.8,9059.9,2653.5z M1853.4,2639.2
		c71.4-42.8,245.6-131.4,385.6-202.8c142.8-68.6,282.8-140,314.2-160c117.1-65.7,1011.1-545.6,1328.2-711.2
		c179.9-97.1,471.3-248.5,642.7-342.8c174.2-91.4,345.6-182.8,385.6-202.8c65.7-34.3,71.4-54.3,80-242.8
		c5.7-114.3,2.9-205.7-5.7-205.7c-5.7,0-94.3,45.7-194.2,102.8c-97.1,57.1-379.9,205.7-622.7,331.3
		c-242.8,125.7-457,239.9-474.1,254.2s-202.8,114.3-414.2,219.9c-834,428.4-1302.5,674.1-1453.9,762.6
		c-85.7,51.4-225.6,128.5-305.6,168.5c-185.7,94.3-199.9,162.8-42.8,242.8C1619.2,2730.6,1702,2727.8,1853.4,2639.2z"/>
</g>
</svg>
