<?xml version="1.0" encoding="utf-8"?>
<!-- Generator: Adobe Illustrator 23.0.5, SVG Export Plug-In . SVG Version: 6.00 Build 0)  -->
<svg version="1.1" id="Capa_1" xmlns="http://www.w3.org/2000/svg" xmlns:xlink="http://www.w3.org/1999/xlink" x="0px" y="0px"
	 viewBox="0 0 349 69" style="enable-background:new 0 0 349 69;" xml:space="preserve">
<g transform="translate(0.000000,69.000000) scale(0.100000,-0.100000)">
	<path d="M1566.2,322.8c-16.1,13.6,42.5,63.4,42.5,72.4c0,29-41,19-77-19l-34-37l-39,38c-37,36-69,43-77,18c-2-6,5-21,16-32
		c20-20,20-20-9-19c-17,1-39,11-51,25c-13,12-31,23-42,23c-15,0-18-5-13-24l6-25l-347,2c-192,1-420,0-507-1c-150-3-160-2-182,19
		c-17,16-32,20-66,17c-37-3-44,0-53,20c-12,27-21,28-35,2c-6-11-8-25-5-30c4-6-1-17-10-26c-14-15-15-18,0-34c8-9,13-24,10-32
		c-4-9,2-23,11-33c17-17,19-16,27,9s12,26,51,21c36-6,47-3,74,20l31,26l158-6c87-3,316-5,508-4c288,1,348-1,338-12c-7-7-13-19-13-26
		c0-21,35-15,59,11c12,13,36,26,52,28c34,5,35,4,9-22c-24-24-25-39-4-47c21-8,56,12,79,47l19,29l37-40c35-39,73-51,82-26
		c2,6-7,24-21,40L1566.2,322.8"/>
	<path d="M1914,321l-28-26c-30-28-30-48,1-53c13-2,32,11,56,37l36,40l26-35c29-38,72-55,86-33c5,9,1,21-11,34c-27,28-25,32,9,27
		c16-2,40-15,52-28c24-26,59-32,59-11c0,7-6,19-12,26c-11,11,48,13,332,12c190-1,418,1,508,4l163,6l31-26c27-23,38-26,70-21
		c34,6,40,3,50-19c9-19,14-22,25-14c7,6,13,22,13,35c0,12,5,26,10,29c6,3,10,15,10,26c0,10-4,19-10,19c-5,0-10,10-10,23
		c0,24-17,47-34,47c-5,0-6-3-3-6c3-4,2-14-3-24c-7-14-19-17-52-13c-33,4-48,0-63-15c-20-18-40-19-532-18c-324,1-508,5-502,11
		c15,15,10,35-9,35c-10,0-29-11-41-24c-15-16-34-24-52-24c-27,1-28,3-14,18c8,9,15,24,15,33c0,29-41,19-77-19l-34-37l-39,38
		c-37,36-69,43-77,18c-2-6,5-21,15-31C1898,342,1921.8,328.4,1914,321"/>
</g>
</svg>
